<svg id="Capa_1" enable-background="new 0 0 512 512" height="512" viewBox="0 0 512 512" width="512" xmlns="http://www.w3.org/2000/svg" xmlns:xlink="http://www.w3.org/1999/xlink"><linearGradient id="SVGID_1_" gradientUnits="userSpaceOnUse" x1="256" x2="256" y1="512" y2="0"><stop offset="0" stop-color="#fd5900"/><stop offset="1" stop-color="#ffde00"/></linearGradient><g><g><g><path d="m166 60c-8.284 0-15 6.716-15 15s6.716 15 15 15 15-6.716 15-15-6.716-15-15-15zm180 0c-8.284 0-15 6.716-15 15s6.716 15 15 15 16-6.716 16-15-7.716-15-16-15zm136 304.58v-107.58c0-8.284-6.716-15-15-15h-45v-45c0-8.284-6.716-15-15-15h-106v-32h106c8.284 0 15-6.716 15-15v-75h45c8.284 0 15-6.716 15-15s-6.716-15-15-15h-45v-15c0-8.284-6.716-15-15-15h-302c-8.284 0-15 6.716-15 15v15h-45c-8.284 0-15 6.716-15 15s6.716 15 15 15h45v75c0 8.284 6.716 15 15 15h106v32h-106c-8.284 0-15 6.716-15 15v45h-45c-8.284 0-15 6.716-15 15v107.58c-17.459 6.192-30 22.865-30 42.42 0 24.813 20.187 45 45 45 8.284 0 15-6.716 15-15s-6.716-15-15-15c-8.271 0-15-6.729-15-15s6.729-15 15-15 15 6.729 15 15c0 8.284 6.716 15 15 15s15-6.716 15-15c0-19.555-12.541-36.228-30-42.42v-92.58h30v135 90c0 8.284 6.716 15 15 15h302c8.284 0 15-6.716 15-15v-90-135h30v92.58c-17.459 6.192-30 22.865-30 42.42 0 8.284 6.716 15 15 15s15-6.716 15-15c0-8.271 6.729-15 15-15s15 6.729 15 15-6.729 15-15 15c-8.284 0-15 6.716-15 15s6.716 15 15 15c24.813 0 45-20.187 45-45 0-19.555-12.541-36.228-30-42.42zm-362-244.58v-90h272v90zm151 30v32h-30v-32zm121 332h-272v-270h272zm-226-120h16.509c1.949 9.562 5.731 18.46 10.948 26.33l-11.704 11.704c-5.858 5.858-5.858 15.355 0 21.213 5.857 5.857 15.355 5.858 21.213 0l11.704-11.704c7.869 5.217 16.768 9 26.33 10.948v16.509c0 8.284 6.716 15 15 15s15-6.716 15-15v-16.509c9.562-1.949 18.461-5.731 26.33-10.948l11.703 11.704c5.857 5.858 15.354 5.858 21.213 0 5.858-5.858 5.858-15.355 0-21.213l-11.704-11.704c5.218-7.869 9-16.768 10.948-26.33h16.51c8.284 0 15-6.716 15-15s-6.716-15-15-15h-16.509c-1.948-9.562-5.731-18.46-10.948-26.33l11.704-11.704c5.858-5.858 5.858-15.355 0-21.213-5.857-5.857-15.355-5.858-21.213 0l-11.703 11.704c-7.869-5.217-16.768-9-26.33-10.948v-16.509c0-8.284-6.716-15-15-15s-15 6.716-15 15v16.509c-9.561 1.949-18.46 5.731-26.33 10.948l-11.704-11.704c-5.857-5.858-15.355-5.858-21.213 0s-5.858 15.355 0 21.213l11.704 11.704c-5.218 7.869-9 16.768-10.948 26.33h-16.51c-8.284 0-15 6.716-15 15s6.716 15 15 15zm90-60c24.813 0 45 20.187 45 45s-20.187 45-45 45-45-20.187-45-45 20.187-45 45-45zm0 60c8.284 0 15-6.716 15-15s-6.716-15-15-15-15 6.716-15 15 6.716 15 15 15z" fill="url(#SVGID_1_)"/></g></g></g></svg>